# xmcd
#
# Track frame offsets: 
#        150
#        21813
#        50088
#        64788
#        93513
#        120363
#        144363
#        168588
#        189663
#        208138
#        230388
#        250938
#        281938
#
# Disc length: 4048 seconds
#
# Revision: 0
# Processed by: cddbd v1.5.2PL0 Copyright (c) Steve Scherf et al.
# Submitted via: ExactAudioCopy v1.0b1
#
DISCID=c00fce0d
DTITLE=Various Artist - Hoddinott: Concertos
DYEAR=1971
DGENRE=Classical
TTITLE0=Concerto, clarinet and string orchestra   Capriccio: Allegro gio
TTITLE0=coso  Op. 3
TTITLE1=Concerto, clarinet and string orchestra   Arioso: Lento con mali
TTITLE1=nconia  Op. 3
TTITLE2=Concerto, clarinet and string orchestra   Burlesca: Allegro piac
TTITLE2=evole  Op. 3
TTITLE3=Concerto, harp   Dialogue  Op. 11
TTITLE4=Concerto, harp   Improvisation  Op. 11
TTITLE5=Concerto, harp   Fantasy  Op. 11
TTITLE6=Concerto, piano, no. 01   Moderato -  Op. 19
TTITLE7=Concerto, piano, no. 01   Presto  Op. 19
TTITLE8=Concerto, piano, no. 01   Lento  Op. 19
TTITLE9=Concerto, piano, no. 01   Allegro  Op. 19
TTITLE10=Concerto, piano, no. 02   Moderato  Op. 21
TTITLE11=Concerto, piano, no. 02   Adagio  Op. 21 
TTITLE12=Concerto, piano, no. 02   Allegro  Op. 21
EXTD=
EXTT0=
EXTT1=
EXTT2=
EXTT3=
EXTT4=
EXTT5=
EXTT6=
EXTT7=
EXTT8=
EXTT9=
EXTT10=
EXTT11=
EXTT12=
PLAYORDER=
